<?xml version="1.0" encoding="UTF-8"?>
<!DOCTYPE svg PUBLIC "-//W3C//DTD SVG 1.1//EN" "http://www.w3.org/Graphics/SVG/1.1/DTD/svg11.dtd">
<!-- Creator: CorelDRAW 2021 (64-Bit) -->
<svg xmlns="http://www.w3.org/2000/svg" xml:space="preserve" width="10.8372mm" height="10.8372mm" version="1.1" style="shape-rendering:geometricPrecision; text-rendering:geometricPrecision; image-rendering:optimizeQuality; fill-rule:evenodd; clip-rule:evenodd"
viewBox="0 0 1083.72 1083.72"
 xmlns:xlink="http://www.w3.org/1999/xlink"
 xmlns:xodm="http://www.corel.com/coreldraw/odm/2003">
 <defs>
  <style type="text/css">
   <![CDATA[
    .fil0 {fill:#121212}
   ]]>
  </style>
 </defs>
 <g id="Capa_x0020_1">
  <metadata id="CorelCorpID_0Corel-Layer"/>
  <g id="_1804534095584">
   <path class="fil0" d="M999.8 1028.13c112.44,-89.42 -66.98,-300.66 -106.26,-333.53 -117.59,-98.44 -584.78,-73.49 -745.77,-503.19 -26.9,-71.79 -21.44,-125.87 -100.05,-153.32 -24.26,232.32 177.23,452.79 404.58,559.92 226.91,106.93 452.69,38.1 505.1,342.23 2.71,73.89 1.35,97.84 42.4,87.89z"/>
   <path class="fil0" d="M843.71 1038.08c-41.21,-270.64 -356.21,-177.31 -639.76,-434.48 -169.53,-153.75 -107.74,-173.36 -182.43,-161.01 4.68,117.17 227.01,286.49 345.54,344.88 147.79,72.79 287.33,62.95 373.91,163.61 58.14,67.59 16.78,82.35 102.74,87z"/>
   <path class="fil0" d="M999.8 641.56c58.1,-133.24 -162.78,-249.43 -326.89,-283.72 -202.56,-42.33 -256.05,-144.95 -330.6,-239.11 -12.34,-39.06 -25.58,-54.76 -53.57,-35.77 -31.56,90.46 132.16,264.03 299.4,310.3 326.27,90.28 271.44,42.32 362.74,210.28 15.28,30.81 19.5,61.16 48.92,38.02z"/>
   <path class="fil0" d="M538.13 1028.43c-25.42,-134.85 -226.23,-125.99 -375.4,-244.63 -97.57,-77.6 -38.41,-68.43 -122.2,-119.1 24.04,235.85 304.12,254.87 370.63,286.74 74.58,35.73 59.3,77.76 126.97,76.99z"/>
   <path class="fil0" d="M1047.31 344.99c-36.23,-97.33 -93.77,-88.56 -182.93,-141.69 -84.57,-50.4 -99.04,-123.51 -159.41,-164.91 -39.1,75.43 66.48,163.81 115.43,191.73 35.32,20.16 87.5,33.93 122.27,51.14 86.94,43 15.94,56.1 104.64,63.73z"/>
   <path class="fil0" d="M259.19 1032.92c-59.49,-81.52 -54.55,-30.92 -125.67,-81.64 -53.19,-37.94 -38.08,-45.61 -99.65,-79.78 2.89,91.83 115.81,142.21 225.32,161.42z"/>
  </g>
 </g>
</svg>
