<?xml version="1.0" encoding="UTF-8"?>
<!DOCTYPE svg PUBLIC "-//W3C//DTD SVG 1.1//EN" "http://www.w3.org/Graphics/SVG/1.1/DTD/svg11.dtd">
<!-- Creator: CorelDRAW 2021 (64-Bit) -->
<svg xmlns="http://www.w3.org/2000/svg" xml:space="preserve" width="21.6746mm" height="21.6746mm" version="1.1" style="shape-rendering:geometricPrecision; text-rendering:geometricPrecision; image-rendering:optimizeQuality; fill-rule:evenodd; clip-rule:evenodd"
viewBox="0 0 2167.46 2167.46"
 xmlns:xlink="http://www.w3.org/1999/xlink"
 xmlns:xodm="http://www.corel.com/coreldraw/odm/2003">
 <defs>
  <style type="text/css">
   <![CDATA[
    .fil1 {fill:#121212}
    .fil0 {fill:#F4F4F4}
   ]]>
  </style>
 </defs>
 <g id="Capa_x0020_1">
  <metadata id="CorelCorpID_0Corel-Layer"/>
  <circle class="fil0" cx="1087.96" cy="1086.49" r="1083.74"/>
  <g id="_3164186187616">
   <path class="fil1" d="M1525.73 1810.96c-59.34,-389.71 -512.95,-255.32 -921.25,-625.63 -244.12,-221.4 -155.14,-249.64 -262.69,-231.86 6.73,168.73 326.89,412.55 497.57,496.62 212.81,104.82 413.75,90.64 538.42,235.59 83.72,97.34 24.16,118.59 147.95,125.28z"/>
   <path class="fil1" d="M1750.49 1239.98c83.67,-191.85 -234.4,-359.17 -470.71,-408.55 -291.69,-60.95 -368.71,-208.71 -476.07,-344.3 -17.77,-56.25 -36.83,-78.86 -77.13,-51.51 -45.45,130.26 190.3,380.2 431.12,446.82 469.83,129.99 390.87,60.94 522.35,302.79 21.99,44.38 28.07,88.08 70.44,54.75z"/>
   <path class="fil1" d="M1085.69 1797.06c-36.6,-194.17 -325.77,-181.41 -540.57,-352.25 -140.49,-111.75 -55.3,-98.54 -175.96,-171.5 34.62,339.62 437.93,367 533.7,412.89 107.39,51.45 85.38,111.98 182.83,110.86z"/>
   <path class="fil1" d="M1818.91 812.93c-52.19,-140.15 -135.04,-127.52 -263.43,-204.02 -121.78,-72.57 -142.61,-177.86 -229.54,-237.47 -56.3,108.62 95.73,235.87 166.21,276.09 50.87,29.02 126,48.85 176.08,73.63 125.18,61.92 22.94,80.78 150.68,91.77z"/>
   <path class="fil1" d="M684.02 1803.54c-85.66,-117.4 -78.55,-44.53 -180.95,-117.57 -76.6,-54.63 -54.84,-65.68 -143.51,-114.88 4.16,132.24 166.77,204.79 324.46,232.45z"/>
   <path class="fil1" d="M1750.49 1796.64c161.91,-128.77 -96.46,-432.95 -153.01,-480.28 -169.33,-141.75 -842.08,-105.82 -1073.9,-724.58 -38.74,-103.38 -30.86,-181.25 -144.07,-220.78 -34.93,334.54 255.2,652 582.59,806.28 326.75,153.97 651.86,54.86 727.33,492.79 3.91,106.4 1.95,140.89 61.06,126.57z"/>
  </g>
 </g>
</svg>
