<?xml version="1.0" encoding="UTF-8"?>
<!DOCTYPE svg PUBLIC "-//W3C//DTD SVG 1.1//EN" "http://www.w3.org/Graphics/SVG/1.1/DTD/svg11.dtd">
<!-- Creator: CorelDRAW 2021 (64-Bit) -->
<svg xmlns="http://www.w3.org/2000/svg" xml:space="preserve" width="10.8372mm" height="10.8372mm" version="1.1" style="shape-rendering:geometricPrecision; text-rendering:geometricPrecision; image-rendering:optimizeQuality; fill-rule:evenodd; clip-rule:evenodd"
viewBox="0 0 1083.72 1083.72"
 xmlns:xlink="http://www.w3.org/1999/xlink"
 xmlns:xodm="http://www.corel.com/coreldraw/odm/2003">
 <defs>
  <style type="text/css">
   <![CDATA[
    .fil0 {fill:#121212}
    .fil1 {fill:#121212;fill-rule:nonzero}
   ]]>
  </style>
 </defs>
 <g id="Capa_x0020_1">
  <metadata id="CorelCorpID_0Corel-Layer"/>
  <g id="_1796584676864">
   <path class="fil0" d="M868.43 783.96c80.4,-63.94 -47.89,-214.98 -75.97,-238.48 -84.08,-70.38 -418.12,-52.54 -533.23,-359.78 -19.23,-51.33 -15.33,-90 -71.54,-109.63 -17.34,166.12 126.72,323.75 289.28,400.35 162.24,76.46 323.67,27.24 361.15,244.7 1.94,52.83 0.96,69.95 30.31,62.84z"/>
   <path class="fil0" d="M756.83 791.07c-29.47,-193.5 -254.7,-126.77 -457.43,-310.65 -121.21,-109.93 -77.03,-123.95 -130.44,-115.13 3.34,83.79 162.31,204.85 247.06,246.59 105.67,52.05 205.44,45.01 267.35,116.99 41.57,48.33 11.99,58.88 73.46,62.2z"/>
   <path class="fil0" d="M868.43 507.56c41.55,-95.27 -116.38,-178.34 -233.72,-202.86 -144.84,-30.27 -183.08,-103.64 -236.39,-170.96 -8.82,-27.93 -18.29,-39.16 -38.3,-25.58 -22.56,64.68 94.5,188.78 214.07,221.87 233.29,64.54 194.08,30.25 259.37,150.34 10.92,22.04 13.93,43.74 34.97,27.19z"/>
   <path class="fil0" d="M538.34 784.17c-18.18,-96.41 -161.76,-90.08 -268.42,-174.91 -69.76,-55.48 -27.46,-48.92 -87.37,-85.15 17.19,168.63 217.45,182.23 265,205.01 53.33,25.55 42.4,55.6 90.79,55.05z"/>
   <path class="fil0" d="M902.4 295.51c-25.91,-69.59 -67.04,-63.32 -130.79,-101.3 -60.47,-36.04 -70.82,-88.32 -113.98,-117.92 -27.96,53.94 47.53,117.12 82.53,137.09 25.26,14.41 62.56,24.26 87.43,36.56 62.16,30.75 11.39,40.11 74.81,45.57z"/>
   <path class="fil0" d="M338.89 787.39c-42.53,-58.29 -39,-22.11 -89.85,-58.38 -38.03,-27.13 -27.23,-32.61 -71.25,-57.04 2.06,65.66 82.8,101.68 161.1,115.42z"/>
  </g>
  <path class="fil1" d="M97.84 913.01c-4.52,-2.47 -9.12,-4.52 -13.8,-6.13 -4.68,-1.61 -9.07,-2.42 -13.16,-2.42 -5.05,0 -9.04,1.02 -11.94,3.07 -2.91,2.04 -4.36,5.11 -4.36,9.2 0,2.79 1.1,5.3 3.31,7.5 2.21,2.21 5.06,4.17 8.55,5.89 3.5,1.72 7.13,3.28 10.9,4.68 3.44,1.29 6.86,2.83 10.25,4.6 3.39,1.78 6.43,3.99 9.12,6.62 2.69,2.64 4.84,5.92 6.45,9.85 1.62,3.93 2.43,8.74 2.43,14.44 0,6.03 -1.56,11.63 -4.69,16.79 -3.12,5.17 -7.69,9.34 -13.71,12.51 -6.03,3.17 -13.46,4.76 -22.28,4.76 -4.52,0 -9.12,-0.46 -13.8,-1.37 -4.68,-0.92 -9.28,-2.31 -13.8,-4.2 -4.52,-1.88 -8.88,-4.27 -13.07,-7.18l10.33 -18.24c2.79,2.05 5.83,3.85 9.12,5.41 3.28,1.56 6.59,2.77 9.92,3.63 3.34,0.86 6.4,1.29 9.2,1.29 2.8,0 5.62,-0.4 8.48,-1.21 2.85,-0.81 5.22,-2.18 7.1,-4.12 1.88,-1.93 2.82,-4.62 2.82,-8.07 0,-2.36 -0.78,-4.52 -2.34,-6.45 -1.56,-1.94 -3.66,-3.72 -6.29,-5.33 -2.64,-1.61 -5.52,-3.01 -8.64,-4.2 -3.66,-1.39 -7.42,-3.01 -11.3,-4.84 -3.87,-1.83 -7.5,-4.06 -10.89,-6.7 -3.39,-2.63 -6.14,-5.92 -8.23,-9.84 -2.1,-3.93 -3.15,-8.75 -3.15,-14.45 0,-6.89 1.53,-12.86 4.6,-17.92 3.07,-5.05 7.4,-9.06 12.99,-12.02 5.6,-2.96 12.05,-4.6 19.37,-4.92 9.58,0 17.35,1.13 23.33,3.39 5.97,2.26 11.32,4.95 16.06,8.07l-8.88 17.91z"/>
  <path id="_1" class="fil1" d="M121.24 943.84c0,-8.18 1.56,-15.92 4.68,-23.24 3.12,-7.32 7.45,-13.8 12.99,-19.45 5.55,-5.65 11.98,-10.09 19.29,-13.32 7.32,-3.22 15.18,-4.84 23.57,-4.84 8.28,0 16.09,1.62 23.4,4.84 7.32,3.23 13.8,7.67 19.45,13.32 5.65,5.65 10.06,12.13 13.24,19.45 3.17,7.32 4.76,15.06 4.76,23.24 0,8.4 -1.59,16.25 -4.76,23.57 -3.18,7.32 -7.59,13.75 -13.24,19.29 -5.65,5.54 -12.13,9.87 -19.45,12.99 -7.31,3.12 -15.12,4.68 -23.4,4.68 -8.39,0 -16.25,-1.56 -23.57,-4.68 -7.31,-3.12 -13.74,-7.45 -19.29,-12.99 -5.54,-5.54 -9.87,-11.97 -12.99,-19.29 -3.12,-7.32 -4.68,-15.17 -4.68,-23.57zm24.21 0c0,5.28 0.94,10.2 2.83,14.77 1.88,4.57 4.52,8.61 7.91,12.11 3.39,3.49 7.31,6.21 11.78,8.15 4.46,1.94 9.33,2.9 14.61,2.9 5.05,0 9.76,-0.96 14.12,-2.9 4.36,-1.94 8.15,-4.66 11.38,-8.15 3.23,-3.5 5.76,-7.54 7.59,-12.11 1.82,-4.57 2.74,-9.49 2.74,-14.77 0,-5.38 -0.94,-10.38 -2.83,-15.01 -1.88,-4.63 -4.46,-8.69 -7.74,-12.19 -3.29,-3.49 -7.13,-6.21 -11.54,-8.15 -4.42,-1.93 -9.2,-2.9 -14.37,-2.9 -5.16,0 -9.95,0.97 -14.36,2.9 -4.42,1.94 -8.29,4.66 -11.63,8.15 -3.33,3.5 -5.91,7.56 -7.74,12.19 -1.83,4.63 -2.75,9.63 -2.75,15.01z"/>
  <polygon id="_2" class="fil1" points="266.02,884.28 289.43,884.28 289.43,980.48 345.28,980.48 345.28,1003.08 266.02,1003.08 "/>
  <path id="_3" class="fil1" d="M356.09 1003.08l53.59 -123.48 1.29 0 53.58 123.48 -27.11 0 -34.22 -86.84 16.95 -11.62 -41 98.46 -23.08 0zm36.64 -42.94l35.67 0 8.23 19.7 -51.17 0 7.27 -19.7z"/>
  <path id="_4" class="fil1" d="M517.82 884.28c7.42,0 14.04,0.94 19.85,2.83 5.81,1.88 10.68,4.57 14.61,8.07 3.93,3.49 6.91,7.69 8.96,12.59 2.04,4.89 3.06,10.41 3.06,16.54 0,4.84 -0.72,9.69 -2.17,14.53 -1.46,4.84 -3.82,9.25 -7.11,13.23 -3.28,3.99 -7.61,7.19 -12.99,9.61 -5.38,2.42 -12.05,3.63 -20.01,3.63l-16.79 0 0 37.77 -23.41 0 0 -118.8 36 0zm4.03 58.43c3.55,0 6.51,-0.59 8.88,-1.77 2.37,-1.19 4.22,-2.69 5.57,-4.52 1.34,-1.83 2.31,-3.74 2.91,-5.73 0.59,-1.99 0.88,-3.85 0.88,-5.57 0,-1.29 -0.19,-2.93 -0.56,-4.92 -0.38,-1.99 -1.16,-4.01 -2.34,-6.06 -1.19,-2.04 -2.99,-3.76 -5.41,-5.16 -2.42,-1.4 -5.68,-2.1 -9.76,-2.1l-16.79 0 0 35.83 16.62 0zm21.96 14.53l29.37 45.84 -27.28 0 -30.02 -45.19 27.93 -0.65z"/>
  <polygon id="_5" class="fil1" points="594.17,886.54 663.25,886.38 663.09,901.39 609.66,901.39 609.5,938.84 656.63,938.68 656.47,953.53 609.66,953.53 609.5,1003.08 594.01,1003.08 "/>
  <polygon id="_6" class="fil1" points="689.24,886.54 704.73,886.38 704.57,988.07 763.97,988.07 763.97,1003.08 689.08,1003.08 "/>
  <path id="_7" class="fil1" d="M780.11 944.97c0,-8.18 1.54,-15.84 4.6,-23 3.07,-7.15 7.35,-13.5 12.84,-19.04 5.48,-5.55 11.83,-9.9 19.04,-13.08 7.21,-3.17 14.96,-4.76 23.24,-4.76 8.08,0 15.69,1.59 22.84,4.76 7.16,3.18 13.51,7.53 19.05,13.08 5.54,5.54 9.87,11.89 12.99,19.04 3.12,7.16 4.69,14.82 4.69,23 0,8.29 -1.57,16.01 -4.69,23.16 -3.12,7.16 -7.45,13.46 -12.99,18.89 -5.54,5.43 -11.89,9.68 -19.05,12.75 -7.15,3.07 -14.76,4.6 -22.84,4.6 -8.39,0 -16.16,-1.51 -23.32,-4.52 -7.15,-3.01 -13.48,-7.21 -18.96,-12.59 -5.49,-5.38 -9.77,-11.65 -12.84,-18.8 -3.06,-7.16 -4.6,-14.99 -4.6,-23.49zm16.14 0c0,6.14 1.11,11.89 3.31,17.27 2.21,5.38 5.33,10.09 9.36,14.13 4.04,4.03 8.67,7.21 13.89,9.52 5.22,2.31 10.89,3.47 17.02,3.47 6.14,0 11.84,-1.16 17.11,-3.47 5.28,-2.31 9.88,-5.49 13.8,-9.52 3.93,-4.04 7,-8.72 9.21,-14.05 2.2,-5.32 3.3,-11.11 3.3,-17.35 0,-6.24 -1.13,-12.08 -3.39,-17.51 -2.26,-5.43 -5.35,-10.22 -9.28,-14.37 -3.92,-4.14 -8.52,-7.34 -13.8,-9.6 -5.27,-2.26 -10.97,-3.39 -17.11,-3.39 -6.24,0 -11.99,1.16 -17.27,3.47 -5.27,2.31 -9.87,5.54 -13.8,9.69 -3.93,4.14 -6.97,8.93 -9.12,14.36 -2.15,5.43 -3.23,11.22 -3.23,17.35z"/>
  <path id="_8" class="fil1" d="M906.98 887.03l18.08 0 31.63 89.09 -2.74 -1.13 23.08 -59.72 7.26 21.15 -30.83 71.99 -46.48 -121.38zm56.01 0l15.65 0 34.22 87.8 -3.23 -0.64 30.19 -87.16 16.62 0 -45.84 121.22 -47.61 -121.22z"/>
 </g>
</svg>
