<?xml version="1.0" encoding="UTF-8"?>
<!DOCTYPE svg PUBLIC "-//W3C//DTD SVG 1.1//EN" "http://www.w3.org/Graphics/SVG/1.1/DTD/svg11.dtd">
<!-- Creator: CorelDRAW 2021 (64-Bit) -->
<svg xmlns="http://www.w3.org/2000/svg" xml:space="preserve" width="210mm" height="297mm" version="1.1" style="shape-rendering:geometricPrecision; text-rendering:geometricPrecision; image-rendering:optimizeQuality; fill-rule:evenodd; clip-rule:evenodd"
viewBox="0 0 21000 29700"
 xmlns:xlink="http://www.w3.org/1999/xlink"
 xmlns:xodm="http://www.corel.com/coreldraw/odm/2003">
 <defs>
  <style type="text/css">
   <![CDATA[
    .fil0 {fill:#121212}
    .fil1 {fill:#121212;fill-rule:nonzero}
   ]]>
  </style>
 </defs>
 <g id="Capa_x0020_1">
  <metadata id="CorelCorpID_0Corel-Layer"/>
  <g id="_1933764359168">
   <path class="fil0" d="M12495.05 6673.61c562.2,-447.11 -334.94,-1503.35 -531.29,-1667.69 -587.96,-492.2 -2923.94,-367.44 -3728.9,-2515.96 -134.49,-358.95 -107.16,-629.34 -500.23,-766.61 -121.28,1161.62 886.13,2263.96 2022.91,2799.65 1134.55,534.63 2263.43,190.49 2525.49,1711.13 13.57,369.45 6.75,489.22 212.02,439.48z"/>
   <path class="fil0" d="M11714.61 6723.35c-206.06,-1353.19 -1781.1,-886.55 -3198.81,-2172.4 -847.66,-768.78 -538.71,-866.83 -912.15,-805.09 23.37,585.89 1135.05,1432.5 1727.69,1724.41 738.95,363.97 1436.65,314.75 1869.54,818.06 290.7,337.99 83.89,411.79 513.73,435.02z"/>
   <path class="fil0" d="M12495.05 4740.72c290.51,-666.18 -813.9,-1247.15 -1634.45,-1418.6 -1012.81,-211.66 -1280.25,-724.74 -1653.04,-1195.54 -61.7,-195.31 -127.9,-273.82 -267.82,-178.86 -157.82,452.32 660.8,1320.16 1496.98,1551.52 1631.38,451.37 1357.19,211.59 1813.74,1051.38 76.35,154.08 97.46,305.84 244.59,190.1z"/>
   <path class="fil0" d="M10186.69 6675.08c-127.11,-674.24 -1131.18,-629.93 -1877.02,-1223.13 -487.84,-388.02 -192.03,-342.15 -610.99,-595.49 120.2,1179.25 1520.62,1274.32 1853.16,1433.67 372.89,178.67 296.47,388.82 634.85,384.95z"/>
   <path class="fil0" d="M12732.6 3257.86c-181.18,-486.63 -468.87,-442.79 -914.67,-708.42 -422.86,-252 -495.18,-617.58 -797.05,-824.55 -195.48,377.15 332.41,819.01 577.14,958.64 176.62,100.77 437.5,169.65 611.38,255.67 434.69,215.01 79.66,280.51 523.2,318.66z"/>
   <path class="fil0" d="M8791.98 6697.56c-297.45,-407.62 -272.74,-154.61 -628.33,-408.21 -265.96,-189.71 -190.42,-228.08 -498.29,-398.91 14.45,459.17 579.07,711.07 1126.62,807.12z"/>
  </g>
  <path class="fil1" d="M7106.36 7575.97c-31.61,-17.3 -63.78,-31.6 -96.52,-42.89 -32.73,-11.29 -63.4,-16.94 -92,-16.94 -35.37,0 -63.22,7.15 -83.54,21.45 -20.32,14.3 -30.48,35.75 -30.48,64.35 0,19.57 7.72,37.06 23.15,52.49 15.42,15.43 35.37,29.16 59.83,41.21 24.46,12.04 49.86,22.95 76.2,32.73 24.08,9.03 47.97,19.76 71.68,32.18 23.71,12.41 44.97,27.84 63.78,46.28 18.82,18.44 33.87,41.39 45.16,68.86 11.29,27.47 16.93,61.15 16.93,101.04 0,42.14 -10.91,81.28 -32.74,117.4 -21.82,36.13 -53.81,65.29 -95.95,87.49 -42.15,22.2 -94.08,33.3 -155.79,33.3 -31.61,0 -63.78,-3.2 -96.52,-9.59 -32.73,-6.4 -64.91,-16.19 -96.52,-29.36 -31.61,-13.17 -62.08,-29.91 -91.44,-50.23l72.25 -127.56c19.57,14.3 40.83,26.9 63.78,37.81 22.96,10.92 46.1,19.38 69.43,25.4 23.33,6.02 44.78,9.03 64.35,9.03 19.56,0 39.32,-2.82 59.26,-8.46 19.95,-5.65 36.5,-15.24 49.67,-28.79 13.17,-13.55 19.76,-32.36 19.76,-56.44 0,-16.56 -5.46,-31.61 -16.37,-45.16 -10.91,-13.54 -25.59,-25.96 -44.03,-37.25 -18.43,-11.29 -38.57,-21.07 -60.39,-29.35 -25.59,-9.79 -51.93,-21.07 -79.02,-33.87 -27.1,-12.79 -52.5,-28.41 -76.2,-46.85 -23.71,-18.44 -42.9,-41.39 -57.58,-68.86 -14.67,-27.47 -22.01,-61.15 -22.01,-101.03 0,-48.17 10.73,-89.94 32.17,-125.31 21.45,-35.37 51.75,-63.4 90.88,-84.1 39.13,-20.7 84.29,-32.17 135.47,-34.43 66.98,0 121.35,7.9 163.12,23.71 41.77,15.8 79.21,34.61 112.32,56.44l-62.09 125.3z"/>
  <path id="_1" class="fil1" d="M7270.05 7791.59c0,-57.2 10.92,-111.38 32.74,-162.56 21.83,-51.17 52.12,-96.52 90.88,-136.03 38.75,-39.51 83.72,-70.55 134.9,-93.13 51.17,-22.58 106.11,-33.87 164.81,-33.87 57.95,0 112.52,11.29 163.69,33.87 51.18,22.58 96.52,53.62 136.03,93.13 39.51,39.51 70.37,84.86 92.57,136.03 22.2,51.18 33.3,105.36 33.3,162.56 0,58.7 -11.1,113.64 -33.3,164.82 -22.2,51.17 -53.06,96.14 -92.57,134.9 -39.51,38.76 -84.85,69.05 -136.03,90.87 -51.17,21.83 -105.74,32.74 -163.69,32.74 -58.7,0 -113.64,-10.91 -164.81,-32.74 -51.18,-21.82 -96.15,-52.11 -134.9,-90.87 -38.76,-38.76 -69.05,-83.73 -90.88,-134.9 -21.82,-51.18 -32.74,-106.12 -32.74,-164.82zm169.34 0c0,36.88 6.58,71.31 19.75,103.29 13.17,31.99 31.61,60.21 55.32,84.67 23.7,24.46 51.17,43.46 82.4,57.01 31.24,13.54 65.29,20.32 102.17,20.32 35.37,0 68.3,-6.78 98.78,-20.32 30.48,-13.55 57,-32.55 79.58,-57.01 22.58,-24.46 40.26,-52.68 53.06,-84.67 12.79,-31.98 19.19,-66.41 19.19,-103.29 0,-37.63 -6.59,-72.62 -19.76,-104.98 -13.17,-32.37 -31.23,-60.78 -54.18,-85.24 -22.96,-24.45 -49.86,-43.46 -80.72,-57 -30.85,-13.55 -64.34,-20.32 -100.47,-20.32 -36.12,0 -69.61,6.77 -100.47,20.32 -30.85,13.54 -57.95,32.55 -81.28,57 -23.33,24.46 -41.39,52.87 -54.18,85.24 -12.8,32.36 -19.19,67.35 -19.19,104.98z"/>
  <polygon id="_2" class="fil1" points="8282.66,7375.03 8446.35,7375.03 8446.35,8047.85 8836.94,8047.85 8836.94,8205.89 8282.66,8205.89 "/>
  <path id="_3" class="fil1" d="M8912.58 8205.89l374.78 -863.59 9.04 0 374.78 863.59 -189.65 0 -239.32 -607.34 118.53 -81.28 -286.73 688.62 -161.43 0zm256.25 -300.28l249.48 0 57.58 137.72 -357.86 0 50.8 -137.72z"/>
  <path id="_4" class="fil1" d="M10043.71 7375.03c51.93,0 98.22,6.59 138.86,19.76 40.64,13.17 74.69,31.98 102.16,56.44 27.47,24.46 48.35,53.81 62.65,88.06 14.3,34.24 21.45,72.81 21.45,115.71 0,33.86 -5.08,67.73 -15.24,101.6 -10.16,33.86 -26.72,64.72 -49.67,92.56 -22.95,27.85 -53.24,50.24 -90.87,67.17 -37.63,16.94 -84.29,25.4 -139.99,25.4l-117.4 0 0 264.16 -163.69 0 0 -830.86 251.74 0zm28.23 408.66c24.83,0 45.53,-4.14 62.08,-12.42 16.56,-8.28 29.54,-18.81 38.95,-31.61 9.41,-12.79 16.18,-26.15 20.32,-40.07 4.14,-13.93 6.21,-26.91 6.21,-38.95 0,-9.03 -1.32,-20.51 -3.95,-34.43 -2.64,-13.92 -8.09,-28.03 -16.37,-42.33 -8.28,-14.3 -20.88,-26.34 -37.82,-36.13 -16.93,-9.78 -39.7,-14.67 -68.3,-14.67l-117.4 0 0 250.61 116.28 0zm153.52 101.6l205.46 320.6 -190.78 0 -209.97 -316.09 195.29 -4.51z"/>
  <polygon id="_5" class="fil1" points="10577.67,7390.84 11060.83,7389.71 11059.7,7494.7 10686.04,7494.7 10684.92,7756.6 11014.55,7755.47 11013.42,7859.32 10686.04,7859.32 10684.92,8205.89 10576.54,8205.89 "/>
  <polygon id="_6" class="fil1" points="11242.58,7390.84 11350.95,7389.71 11349.83,8100.9 11765.25,8100.9 11765.25,8205.89 11241.45,8205.89 "/>
  <path id="_7" class="fil1" d="M11878.14 7799.49c0,-57.19 10.73,-110.82 32.18,-160.86 21.45,-50.05 51.36,-94.45 89.74,-133.21 38.38,-38.76 82.79,-69.24 133.21,-91.44 50.42,-22.2 104.61,-33.3 162.56,-33.3 56.44,0 109.69,11.1 159.74,33.3 50.04,22.2 94.45,52.68 133.2,91.44 38.76,38.76 69.05,83.16 90.88,133.21 21.82,50.04 32.74,103.67 32.74,160.86 0,57.95 -10.92,111.95 -32.74,162 -21.83,50.04 -52.12,94.07 -90.88,132.08 -38.75,38 -83.16,67.73 -133.2,89.18 -50.05,21.45 -103.3,32.17 -159.74,32.17 -58.7,0 -113.08,-10.54 -163.12,-31.61 -50.05,-21.07 -94.27,-50.42 -132.65,-88.05 -38.38,-37.63 -68.29,-81.47 -89.74,-131.51 -21.45,-50.05 -32.18,-104.8 -32.18,-164.26zm112.89 0c0,42.9 7.72,83.16 23.14,120.79 15.43,37.63 37.26,70.56 65.48,98.78 28.22,28.22 60.58,50.42 97.08,66.6 36.5,16.18 76.2,24.28 119.1,24.28 42.9,0 82.78,-8.1 119.66,-24.28 36.88,-16.18 69.05,-38.38 96.52,-66.6 27.47,-28.22 48.92,-60.96 64.35,-98.21 15.42,-37.26 23.14,-77.71 23.14,-121.36 0,-43.65 -7.9,-84.47 -23.71,-122.48 -15.8,-38.01 -37.44,-71.5 -64.91,-100.47 -27.47,-28.98 -59.64,-51.36 -96.52,-67.17 -36.87,-15.8 -76.76,-23.71 -119.66,-23.71 -43.65,0 -83.91,8.09 -120.79,24.28 -36.88,16.18 -69.05,38.75 -96.52,67.73 -27.47,28.97 -48.73,62.46 -63.78,100.47 -15.05,38 -22.58,78.46 -22.58,121.35z"/>
  <path id="_8" class="fil1" d="M12765.44 7394.23l126.44 0 221.26 623.14 -19.19 -7.91 161.43 -417.68 50.8 147.88 -215.62 503.48 -325.12 -848.91zm391.73 0l109.5 0 239.32 614.11 -22.58 -4.52 211.1 -609.59 116.28 0 -320.6 847.78 -333.02 -847.78z"/>
 </g>
</svg>
