<?xml version="1.0" encoding="UTF-8"?>
<!DOCTYPE svg PUBLIC "-//W3C//DTD SVG 1.1//EN" "http://www.w3.org/Graphics/SVG/1.1/DTD/svg11.dtd">
<!-- Creator: CorelDRAW 2021 (64-Bit) -->
<svg xmlns="http://www.w3.org/2000/svg" xml:space="preserve" width="21.6746mm" height="21.6746mm" version="1.1" style="shape-rendering:geometricPrecision; text-rendering:geometricPrecision; image-rendering:optimizeQuality; fill-rule:evenodd; clip-rule:evenodd"
viewBox="0 0 2167.46 2167.46"
 xmlns:xlink="http://www.w3.org/1999/xlink"
 xmlns:xodm="http://www.corel.com/coreldraw/odm/2003">
 <defs>
  <style type="text/css">
   <![CDATA[
    .fil1 {fill:#121212}
    .fil0 {fill:#F4F4F4}
    .fil2 {fill:#121212;fill-rule:nonzero}
   ]]>
  </style>
 </defs>
 <g id="Capa_x0020_1">
  <metadata id="CorelCorpID_0Corel-Layer"/>
  <path class="fil0" d="M547.96 139.81l1082.22 0c173.64,0 347.26,173.62 347.26,347.25l0 1083.48c0,173.63 -173.62,347.25 -347.26,347.25l-1082.22 0c-173.64,0 -347.26,-155.94 -347.26,-347.25l0 -1083.48c0,-173.63 173.62,-347.25 347.26,-347.25z"/>
  <g id="_1970232055184">
   <path class="fil1" d="M1438.55 1454.87c-47.47,-311.77 -410.36,-204.26 -736.99,-500.51 -195.3,-177.12 -124.12,-199.71 -210.16,-185.49 5.38,134.99 261.51,330.04 398.05,397.3 170.26,83.85 331.01,72.51 430.74,188.47 66.98,77.87 19.33,94.88 118.36,100.23z"/>
   <path class="fil1" d="M1618.37 998.08c66.93,-153.48 -187.52,-287.34 -376.58,-326.84 -233.35,-48.76 -294.96,-166.97 -380.85,-275.44 -14.22,-45 -29.47,-63.09 -61.71,-41.21 -36.36,104.21 152.25,304.16 344.9,357.46 375.87,103.99 312.69,48.75 417.88,242.23 17.59,35.5 22.46,70.47 56.36,43.8z"/>
   <path class="fil1" d="M1086.53 1443.75c-29.29,-155.34 -260.62,-145.13 -432.46,-281.8 -112.4,-89.4 -44.25,-78.83 -140.77,-137.2 27.69,271.69 350.34,293.59 426.96,330.31 85.91,41.16 68.3,89.58 146.27,88.69z"/>
   <path class="fil1" d="M1673.1 656.44c-41.75,-112.12 -108.03,-102.02 -210.74,-163.22 -97.43,-58.06 -114.09,-142.28 -183.64,-189.97 -45.04,86.89 76.59,188.7 132.97,220.87 40.7,23.21 100.8,39.08 140.86,58.9 100.15,49.54 18.36,64.63 120.55,73.42z"/>
   <path class="fil1" d="M765.19 1448.93c-68.53,-93.92 -62.84,-35.62 -144.77,-94.05 -61.27,-43.71 -43.87,-52.55 -114.8,-91.91 3.33,105.79 133.41,163.83 259.57,185.96z"/>
   <path class="fil1" d="M1618.37 1443.41c129.52,-103.01 -77.17,-346.36 -122.41,-384.23 -135.47,-113.4 -673.67,-84.65 -859.13,-579.66 -30.99,-82.7 -24.69,-145 -115.25,-176.63 -27.95,267.64 204.16,521.61 466.07,645.03 261.4,123.18 521.49,43.89 581.87,394.24 3.12,85.11 1.55,112.71 48.85,101.25z"/>
   <path class="fil2" d="M440.94 1581.1c-6.62,-3.62 -13.36,-6.62 -20.21,-8.98 -6.86,-2.36 -13.28,-3.55 -19.27,-3.55 -7.41,0 -13.24,1.5 -17.5,4.5 -4.25,2.99 -6.38,7.48 -6.38,13.47 0,4.1 1.62,7.76 4.85,10.99 3.23,3.23 7.4,6.11 12.53,8.63 5.12,2.52 10.44,4.81 15.95,6.86 5.05,1.89 10.05,4.14 15.02,6.74 4.96,2.6 9.41,5.83 13.35,9.69 3.94,3.86 7.1,8.67 9.46,14.42 2.36,5.75 3.55,12.81 3.55,21.16 0,8.82 -2.29,17.02 -6.86,24.59 -4.57,7.56 -11.27,13.67 -20.09,18.32 -8.83,4.65 -19.71,6.97 -32.63,6.97 -6.62,0 -13.36,-0.67 -20.21,-2.01 -6.86,-1.34 -13.6,-3.39 -20.22,-6.14 -6.62,-2.76 -13,-6.27 -19.14,-10.53l15.13 -26.71c4.09,3 8.55,5.63 13.35,7.92 4.81,2.29 9.66,4.06 14.54,5.32 4.89,1.26 9.38,1.89 13.48,1.89 4.09,0 8.23,-0.59 12.41,-1.77 4.18,-1.18 7.64,-3.19 10.4,-6.03 2.76,-2.84 4.14,-6.78 4.14,-11.82 0,-3.47 -1.14,-6.62 -3.43,-9.46 -2.29,-2.83 -5.36,-5.44 -9.22,-7.8 -3.86,-2.36 -8.08,-4.41 -12.65,-6.15 -5.36,-2.04 -10.87,-4.41 -16.55,-7.09 -5.67,-2.68 -10.99,-5.95 -15.95,-9.81 -4.97,-3.86 -8.99,-8.67 -12.06,-14.42 -3.07,-5.75 -4.61,-12.81 -4.61,-21.16 0,-10.09 2.24,-18.83 6.74,-26.24 4.49,-7.41 10.83,-13.28 19.03,-17.61 8.19,-4.34 17.65,-6.74 28.37,-7.21 14.02,0 25.41,1.65 34.16,4.96 8.75,3.31 16.59,7.25 23.52,11.82l-13 26.24zm34.28 45.16c0,-11.98 2.29,-23.33 6.86,-34.05 4.57,-10.71 10.91,-20.21 19.03,-28.48 8.11,-8.28 17.53,-14.78 28.26,-19.51 10.72,-4.72 22.22,-7.09 34.51,-7.09 12.14,0 23.57,2.37 34.28,7.09 10.72,4.73 20.22,11.23 28.49,19.51 8.28,8.27 14.74,17.77 19.39,28.48 4.65,10.72 6.97,22.07 6.97,34.05 0,12.29 -2.32,23.8 -6.97,34.51 -4.65,10.72 -11.11,20.14 -19.39,28.25 -8.27,8.12 -17.77,14.46 -28.49,19.04 -10.71,4.57 -22.14,6.85 -34.28,6.85 -12.29,0 -23.79,-2.28 -34.51,-6.85 -10.73,-4.58 -20.15,-10.92 -28.26,-19.04 -8.12,-8.11 -14.46,-17.53 -19.03,-28.25 -4.57,-10.71 -6.86,-22.22 -6.86,-34.51zm35.46 0c0,7.72 1.38,14.93 4.14,21.63 2.76,6.7 6.62,12.61 11.59,17.73 4.97,5.12 10.72,9.1 17.26,11.94 6.54,2.84 13.67,4.25 21.4,4.25 7.4,0 14.3,-1.41 20.68,-4.25 6.39,-2.84 11.94,-6.82 16.67,-11.94 4.73,-5.12 8.43,-11.03 11.11,-17.73 2.68,-6.7 4.02,-13.91 4.02,-21.63 0,-7.88 -1.38,-15.21 -4.14,-21.99 -2.76,-6.78 -6.54,-12.73 -11.35,-17.85 -4.8,-5.12 -10.44,-9.1 -16.9,-11.94 -6.46,-2.83 -13.47,-4.25 -21.04,-4.25 -7.56,0 -14.58,1.42 -21.04,4.25 -6.46,2.84 -12.14,6.82 -17.02,11.94 -4.9,5.12 -8.68,11.07 -11.36,17.85 -2.68,6.78 -4.02,14.11 -4.02,21.99zm176.61 -87.24l34.28 0 0 140.9 81.8 0 0 33.1 -116.08 0 0 -174zm131.92 174l78.49 -180.85 1.89 0 78.48 180.85 -39.71 0 -50.12 -127.19 24.82 -17.02 -60.05 144.21 -33.8 0zm53.66 -62.89l52.25 0 12.06 28.85 -74.95 0 10.64 -28.85zm183.22 -111.11c10.87,0 20.57,1.38 29.08,4.14 8.51,2.76 15.64,6.7 21.39,11.82 5.75,5.12 10.13,11.27 13.12,18.44 3,7.17 4.49,15.25 4.49,24.23 0,7.09 -1.06,14.19 -3.19,21.28 -2.12,7.09 -5.59,13.55 -10.4,19.38 -4.81,5.84 -11.15,10.52 -19.03,14.07 -7.88,3.55 -17.65,5.32 -29.31,5.32l-24.59 0 0 55.32 -34.28 0 0 -174 52.72 0zm5.91 85.58c5.2,0 9.53,-0.86 13,-2.6 3.47,-1.73 6.19,-3.94 8.16,-6.62 1.97,-2.68 3.39,-5.47 4.25,-8.39 0.87,-2.92 1.3,-5.63 1.3,-8.16 0,-1.89 -0.27,-4.29 -0.82,-7.21 -0.56,-2.91 -1.7,-5.87 -3.43,-8.86 -1.74,-3 -4.38,-5.52 -7.92,-7.57 -3.55,-2.05 -8.32,-3.07 -14.3,-3.07l-24.59 0 0 52.48 24.35 0zm32.15 21.28l43.03 67.14 -39.96 0 -43.97 -66.19 40.9 -0.95zm73.76 -103.55l101.19 -0.23 -0.24 21.98 -78.25 0 -0.24 54.85 69.03 -0.24 -0.23 21.75 -68.56 0 -0.24 72.58 -22.69 0 0.23 -170.69zm139.25 0l22.7 -0.23 -0.24 148.93 87.01 0 0 21.99 -109.7 0 0.23 -170.69zm133.11 85.58c0,-11.98 2.24,-23.21 6.74,-33.69 4.49,-10.48 10.75,-19.78 18.79,-27.89 8.04,-8.12 17.34,-14.5 27.9,-19.15 10.56,-4.65 21.9,-6.98 34.04,-6.98 11.82,0 22.97,2.33 33.45,6.98 10.48,4.65 19.78,11.03 27.9,19.15 8.12,8.11 14.46,17.41 19.03,27.89 4.57,10.48 6.86,21.71 6.86,33.69 0,12.14 -2.29,23.45 -6.86,33.93 -4.57,10.48 -10.91,19.7 -19.03,27.66 -8.12,7.96 -17.42,14.18 -27.9,18.67 -10.48,4.5 -21.63,6.74 -33.45,6.74 -12.29,0 -23.68,-2.21 -34.16,-6.62 -10.48,-4.41 -19.74,-10.56 -27.78,-18.44 -8.04,-7.88 -14.3,-17.06 -18.79,-27.54 -4.5,-10.48 -6.74,-21.95 -6.74,-34.4zm23.64 0c0,8.99 1.61,17.42 4.85,25.3 3.23,7.88 7.8,14.77 13.71,20.68 5.91,5.91 12.68,10.56 20.33,13.95 7.64,3.39 15.96,5.09 24.94,5.09 8.98,0 17.34,-1.7 25.06,-5.09 7.72,-3.39 14.46,-8.04 20.21,-13.95 5.76,-5.91 10.25,-12.76 13.48,-20.56 3.23,-7.81 4.84,-16.28 4.84,-25.42 0,-9.14 -1.65,-17.69 -4.96,-25.65 -3.31,-7.96 -7.84,-14.97 -13.59,-21.04 -5.76,-6.07 -12.49,-10.76 -20.22,-14.06 -7.72,-3.31 -16.07,-4.97 -25.06,-4.97 -9.14,0 -17.57,1.69 -25.29,5.08 -7.73,3.39 -14.46,8.12 -20.22,14.19 -5.75,6.07 -10.2,13.08 -13.35,21.04 -3.15,7.96 -4.73,16.43 -4.73,25.41zm162.17 -84.87l26.48 0 46.34 130.5 -4.02 -1.66 33.8 -87.47 10.64 30.97 -45.15 105.44 -68.09 -177.78zm82.04 0l22.93 0 50.12 128.61 -4.73 -0.95 44.21 -127.66 24.35 0 -67.14 177.55 -69.74 -177.55z"/>
  </g>
 </g>
</svg>
