<?xml version="1.0" encoding="UTF-8"?>
<!DOCTYPE svg PUBLIC "-//W3C//DTD SVG 1.1//EN" "http://www.w3.org/Graphics/SVG/1.1/DTD/svg11.dtd">
<!-- Creator: CorelDRAW 2021 (64-Bit) -->
<svg xmlns="http://www.w3.org/2000/svg" xml:space="preserve" width="10.8372mm" height="10.8372mm" version="1.1" style="shape-rendering:geometricPrecision; text-rendering:geometricPrecision; image-rendering:optimizeQuality; fill-rule:evenodd; clip-rule:evenodd"
viewBox="0 0 1083.72 1083.72"
 xmlns:xlink="http://www.w3.org/1999/xlink"
 xmlns:xodm="http://www.corel.com/coreldraw/odm/2003">
 <defs>
  <style type="text/css">
   <![CDATA[
    .fil0 {fill:#121212}
    .fil1 {fill:#121212;fill-rule:nonzero}
   ]]>
  </style>
 </defs>
 <g id="Capa_x0020_1">
  <metadata id="CorelCorpID_0Corel-Layer"/>
  <g id="_1804534168176">
   <path class="fil0" d="M873.27 783.94c80.96,-64.38 -48.23,-216.48 -76.51,-240.14 -84.66,-70.88 -421.05,-52.92 -536.96,-362.3 -19.36,-51.69 -15.43,-90.63 -72.03,-110.4 -17.47,167.28 127.6,326.02 291.3,403.15 163.37,76.99 325.93,27.44 363.67,246.41 1.95,53.2 0.97,70.45 30.53,63.28z"/>
   <path class="fil0" d="M760.89 791.11c-29.68,-194.86 -256.48,-127.67 -460.63,-312.83 -122.07,-110.7 -77.58,-124.82 -131.35,-115.93 3.36,84.37 163.44,206.28 248.78,248.31 106.41,52.41 206.88,45.33 269.22,117.8 41.86,48.67 12.08,59.3 73.98,62.65z"/>
   <path class="fil0" d="M873.27 505.61c41.83,-95.93 -117.2,-179.59 -235.36,-204.28 -145.85,-30.48 -184.36,-104.37 -238.04,-172.16 -8.88,-28.13 -18.42,-39.43 -38.57,-25.76 -22.72,65.14 95.16,190.11 215.57,223.42 234.92,65 195.44,30.47 261.18,151.4 10.99,22.19 14.03,44.04 35.22,27.38z"/>
   <path class="fil0" d="M540.86 784.16c-18.3,-97.09 -162.88,-90.71 -270.29,-176.14 -70.24,-55.87 -27.65,-49.26 -87.98,-85.75 17.31,169.82 218.97,183.51 266.86,206.45 53.69,25.73 42.69,55.99 91.41,55.44z"/>
   <path class="fil0" d="M907.48 292.07c-26.09,-70.07 -67.52,-63.76 -131.72,-102.01 -60.89,-36.29 -71.3,-88.93 -114.77,-118.73 -28.15,54.3 47.87,117.93 83.11,138.04 25.43,14.51 63,24.43 88.04,36.82 62.59,30.96 11.47,40.39 75.34,45.88z"/>
   <path class="fil0" d="M340.03 787.39c-42.84,-58.69 -39.28,-22.26 -90.48,-58.78 -38.3,-27.32 -27.42,-32.84 -71.76,-57.44 2.08,66.12 83.39,102.39 162.24,116.22z"/>
  </g>
  <g transform="matrix(0.999996 0 0 1 -523.889 462.734)">
   <path class="fil1" d="M97.29 913.89c-4.55,-2.49 -9.18,-4.55 -13.9,-6.17 -4.71,-1.63 -9.13,-2.44 -13.24,-2.44 -5.1,0 -9.11,1.03 -12.03,3.09 -2.93,2.06 -4.39,5.14 -4.39,9.26 0,2.82 1.11,5.34 3.33,7.56 2.22,2.22 5.09,4.2 8.62,5.93 3.52,1.74 7.17,3.31 10.97,4.72 3.46,1.3 6.9,2.84 10.32,4.63 3.41,1.79 6.47,4.01 9.18,6.66 2.71,2.66 4.88,5.96 6.5,9.92 1.63,3.95 2.44,8.8 2.44,14.54 0,6.07 -1.57,11.71 -4.71,16.91 -3.14,5.2 -7.75,9.4 -13.82,12.6 -6.07,3.19 -13.54,4.79 -22.43,4.79 -4.55,0 -9.18,-0.46 -13.9,-1.38 -4.71,-0.92 -9.34,-2.33 -13.89,-4.23 -4.55,-1.89 -8.94,-4.3 -13.17,-7.23l10.4 -18.37c2.82,2.06 5.88,3.88 9.19,5.45 3.3,1.57 6.63,2.79 9.99,3.65 3.36,0.87 6.45,1.31 9.27,1.31 2.82,0 5.66,-0.41 8.53,-1.22 2.87,-0.82 5.26,-2.2 7.15,-4.15 1.9,-1.95 2.85,-4.66 2.85,-8.13 0,-2.38 -0.79,-4.55 -2.36,-6.5 -1.57,-1.95 -3.68,-3.74 -6.34,-5.36 -2.65,-1.63 -5.55,-3.04 -8.69,-4.23 -3.69,-1.41 -7.48,-3.03 -11.38,-4.87 -3.9,-1.85 -7.56,-4.09 -10.97,-6.75 -3.42,-2.65 -6.18,-5.96 -8.29,-9.91 -2.12,-3.96 -3.17,-8.81 -3.17,-14.55 0,-6.94 1.54,-12.95 4.63,-18.04 3.09,-5.1 7.45,-9.13 13.08,-12.11 5.64,-2.98 12.14,-4.63 19.51,-4.96 9.64,0 17.47,1.14 23.49,3.41 6.01,2.28 11.4,4.99 16.17,8.13l-8.94 18.04z"/>
   <path id="_1" class="fil1" d="M120.86 944.94c0,-8.24 1.57,-16.04 4.71,-23.41 3.14,-7.37 7.5,-13.9 13.09,-19.58 5.58,-5.69 12.05,-10.16 19.42,-13.41 7.37,-3.25 15.28,-4.88 23.73,-4.88 8.34,0 16.2,1.63 23.57,4.88 7.37,3.25 13.89,7.72 19.58,13.41 5.69,5.68 10.14,12.21 13.33,19.58 3.2,7.37 4.8,15.17 4.8,23.41 0,8.45 -1.6,16.36 -4.8,23.73 -3.19,7.37 -7.64,13.84 -13.33,19.42 -5.69,5.58 -12.21,9.94 -19.58,13.09 -7.37,3.14 -15.23,4.71 -23.57,4.71 -8.45,0 -16.36,-1.57 -23.73,-4.71 -7.37,-3.15 -13.84,-7.51 -19.42,-13.09 -5.59,-5.58 -9.95,-12.05 -13.09,-19.42 -3.14,-7.37 -4.71,-15.28 -4.71,-23.73zm24.38 0c0,5.31 0.95,10.26 2.84,14.87 1.9,4.61 4.55,8.67 7.97,12.19 3.41,3.52 7.37,6.26 11.86,8.21 4.5,1.95 9.4,2.92 14.71,2.92 5.1,0 9.84,-0.97 14.22,-2.92 4.39,-1.95 8.21,-4.69 11.46,-8.21 3.25,-3.52 5.8,-7.58 7.64,-12.19 1.85,-4.61 2.77,-9.56 2.77,-14.87 0,-5.42 -0.95,-10.46 -2.85,-15.12 -1.89,-4.66 -4.5,-8.75 -7.8,-12.27 -3.31,-3.52 -7.18,-6.26 -11.62,-8.21 -4.44,-1.95 -9.27,-2.92 -14.47,-2.92 -5.2,0 -10.02,0.97 -14.46,2.92 -4.45,1.95 -8.35,4.69 -11.71,8.21 -3.36,3.52 -5.96,7.61 -7.8,12.27 -1.84,4.66 -2.76,9.7 -2.76,15.12z"/>
   <polygon id="_2" class="fil1" points="266.65,884.96 290.22,884.96 290.22,981.83 346.46,981.83 346.46,1004.59 266.65,1004.59 "/>
   <path id="_3" class="fil1" d="M357.35 1004.59l53.96 -124.34 1.3 0 53.97 124.34 -27.31 0 -34.46 -87.45 17.07 -11.7 -41.29 99.15 -23.24 0zm36.9 -43.24l35.92 0 8.29 19.83 -51.53 0 7.32 -19.83z"/>
   <path id="_4" class="fil1" d="M520.22 884.96c7.47,0 14.14,0.95 19.99,2.85 5.85,1.89 10.75,4.6 14.71,8.12 3.96,3.52 6.96,7.75 9.02,12.68 2.06,4.93 3.09,10.48 3.09,16.66 0,4.88 -0.73,9.75 -2.2,14.63 -1.46,4.88 -3.84,9.32 -7.15,13.33 -3.3,4.01 -7.66,7.23 -13.08,9.67 -5.42,2.44 -12.14,3.66 -20.16,3.66l-16.9 0 0 38.03 -23.57 0 0 -119.63 36.25 0zm4.06 58.84c3.58,0 6.56,-0.6 8.94,-1.79 2.38,-1.19 4.25,-2.71 5.61,-4.55 1.35,-1.84 2.33,-3.76 2.92,-5.77 0.6,-2 0.9,-3.87 0.9,-5.61 0,-1.3 -0.19,-2.95 -0.57,-4.95 -0.38,-2.01 -1.17,-4.04 -2.36,-6.1 -1.19,-2.06 -3,-3.79 -5.44,-5.2 -2.44,-1.41 -5.72,-2.11 -9.84,-2.11l-16.9 0 0 36.08 16.74 0zm22.11 14.63l29.58 46.16 -27.47 0 -30.23 -45.51 28.12 -0.65z"/>
   <polygon id="_5" class="fil1" points="597.1,887.24 666.66,887.07 666.5,902.19 612.7,902.19 612.54,939.9 660,939.74 659.84,954.69 612.7,954.69 612.54,1004.59 596.93,1004.59 "/>
   <polygon id="_6" class="fil1" points="692.84,887.24 708.44,887.07 708.28,989.47 768.09,989.47 768.09,1004.59 692.67,1004.59 "/>
   <path id="_7" class="fil1" d="M784.35 946.08c0,-8.24 1.54,-15.96 4.63,-23.17 3.09,-7.2 7.4,-13.6 12.92,-19.18 5.53,-5.58 11.92,-9.97 19.18,-13.16 7.26,-3.2 15.07,-4.8 23.41,-4.8 8.13,0 15.79,1.6 23,4.8 7.21,3.19 13.6,7.58 19.18,13.16 5.58,5.58 9.94,11.98 13.08,19.18 3.14,7.21 4.71,14.93 4.71,23.17 0,8.34 -1.57,16.11 -4.71,23.32 -3.14,7.21 -7.5,13.55 -13.08,19.02 -5.58,5.47 -11.97,9.75 -19.18,12.84 -7.21,3.09 -14.87,4.63 -23,4.63 -8.45,0 -16.28,-1.52 -23.49,-4.55 -7.2,-3.03 -13.57,-7.26 -19.1,-12.68 -5.52,-5.42 -9.83,-11.73 -12.92,-18.93 -3.09,-7.21 -4.63,-15.09 -4.63,-23.65zm16.25 0c0,6.17 1.11,11.97 3.34,17.39 2.22,5.42 5.36,10.16 9.42,14.22 4.07,4.06 8.73,7.26 13.98,9.59 5.26,2.33 10.97,3.49 17.15,3.49 6.18,0 11.92,-1.16 17.23,-3.49 5.31,-2.33 9.94,-5.53 13.9,-9.59 3.95,-4.06 7.04,-8.78 9.26,-14.14 2.22,-5.37 3.33,-11.19 3.33,-17.47 0,-6.29 -1.13,-12.17 -3.41,-17.64 -2.28,-5.47 -5.39,-10.29 -9.35,-14.47 -3.95,-4.17 -8.58,-7.39 -13.89,-9.67 -5.31,-2.27 -11.06,-3.41 -17.23,-3.41 -6.29,0 -12.09,1.16 -17.39,3.49 -5.31,2.33 -9.95,5.58 -13.9,9.76 -3.96,4.17 -7.02,8.99 -9.19,14.46 -2.16,5.47 -3.25,11.3 -3.25,17.48z"/>
   <path id="_8" class="fil1" d="M912.09 887.72l18.21 0 31.86 89.73 -2.77 -1.14 23.25 -60.14 7.31 21.29 -31.04 72.49 -46.82 -122.23zm56.41 0l15.76 0 34.46 88.43 -3.25 -0.65 30.39 -87.78 16.75 0 -46.17 122.07 -47.94 -122.07z"/>
  </g>
 </g>
</svg>
