<?xml version="1.0" encoding="UTF-8"?>
<!DOCTYPE svg PUBLIC "-//W3C//DTD SVG 1.1//EN" "http://www.w3.org/Graphics/SVG/1.1/DTD/svg11.dtd">
<!-- Creator: CorelDRAW 2021 (64-Bit) -->
<svg xmlns="http://www.w3.org/2000/svg" xml:space="preserve" width="210mm" height="297mm" version="1.1" style="shape-rendering:geometricPrecision; text-rendering:geometricPrecision; image-rendering:optimizeQuality; fill-rule:evenodd; clip-rule:evenodd"
viewBox="0 0 21000 29700"
 xmlns:xlink="http://www.w3.org/1999/xlink"
 xmlns:xodm="http://www.corel.com/coreldraw/odm/2003">
 <defs>
  <style type="text/css">
   <![CDATA[
    .fil0 {fill:#121212}
   ]]>
  </style>
 </defs>
 <g id="Capa_x0020_1">
  <metadata id="CorelCorpID_0Corel-Layer"/>
  <g id="_1933965970000">
   <path class="fil0" d="M12495.05 6673.61c562.2,-447.11 -334.94,-1503.35 -531.29,-1667.69 -587.96,-492.2 -2923.94,-367.44 -3728.9,-2515.96 -134.49,-358.95 -107.16,-629.34 -500.23,-766.61 -121.28,1161.62 886.13,2263.96 2022.91,2799.65 1134.55,534.63 2263.43,190.49 2525.49,1711.13 13.57,369.45 6.75,489.22 212.02,439.48z"/>
   <path class="fil0" d="M11714.61 6723.35c-206.06,-1353.19 -1781.1,-886.55 -3198.81,-2172.4 -847.66,-768.78 -538.71,-866.83 -912.15,-805.09 23.37,585.89 1135.05,1432.5 1727.69,1724.41 738.95,363.97 1436.65,314.75 1869.54,818.06 290.7,337.99 83.89,411.79 513.73,435.02z"/>
   <path class="fil0" d="M12495.05 4740.72c290.51,-666.18 -813.9,-1247.15 -1634.45,-1418.6 -1012.81,-211.66 -1280.25,-724.74 -1653.04,-1195.54 -61.7,-195.31 -127.9,-273.82 -267.82,-178.86 -157.82,452.32 660.8,1320.16 1496.98,1551.52 1631.38,451.37 1357.19,211.59 1813.74,1051.38 76.35,154.08 97.46,305.84 244.59,190.1z"/>
   <path class="fil0" d="M10186.69 6675.08c-127.11,-674.24 -1131.18,-629.93 -1877.02,-1223.13 -487.84,-388.02 -192.03,-342.15 -610.99,-595.49 120.2,1179.25 1520.62,1274.32 1853.16,1433.67 372.89,178.67 296.47,388.82 634.85,384.95z"/>
   <path class="fil0" d="M12732.6 3257.86c-181.18,-486.63 -468.87,-442.79 -914.67,-708.42 -422.86,-252 -495.18,-617.58 -797.05,-824.55 -195.48,377.15 332.41,819.01 577.14,958.64 176.62,100.77 437.5,169.65 611.38,255.67 434.69,215.01 79.66,280.51 523.2,318.66z"/>
   <path class="fil0" d="M8791.98 6697.56c-297.45,-407.62 -272.74,-154.61 -628.33,-408.21 -265.96,-189.71 -190.42,-228.08 -498.29,-398.91 14.45,459.17 579.07,711.07 1126.62,807.12z"/>
  </g>
 </g>
</svg>
